# xmcd
#
# Track frame offsets: 
#        150
#        20590
#        37612
#        55697
#        69487
#        95070
#        106495
#        122727
#        146442
#        164777
#        186467
#        206642
#        221985
#        240790
#        259175
#
# Disc length: 3786 seconds
#
# Revision: 2
# Processed by: cddbd v1.5.2PL0 Copyright (c) Steve Scherf et al.
# Submitted via: ExactAudioCopy v1.0b2
#
DISCID=dd0ec80f
DTITLE=Mississippi Heat - Handyman
DYEAR=1999
DGENRE=Blues
TTITLE0=One More Chance
TTITLE1=Excuse Me
TTITLE2=Handyman
TTITLE3=These Men Look Good To Me
TTITLE4=Farewell To S.P. Leary
TTITLE5=Cornell Street Boogie
TTITLE6=Ghost Daddy
TTITLE7=Dog In My Back Yard
TTITLE8=Don't Cross Me
TTITLE9=It Hurts To Be Lonesome
TTITLE10=Payday
TTITLE11=Stay With Me
TTITLE12=Johnny Boy
TTITLE13=Please Don't Cry
TTITLE14=Early Morning Blues
EXTD=
EXTT0=
EXTT1=
EXTT2=
EXTT3=
EXTT4=
EXTT5=
EXTT6=
EXTT7=
EXTT8=
EXTT9=
EXTT10=
EXTT11=
EXTT12=
EXTT13=
EXTT14=
PLAYORDER=
